<?xml version="1.0" encoding="iso-8859-1"?>
<!-- Generator: Adobe Illustrator 18.1.1, SVG Export Plug-In . SVG Version: 6.00 Build 0)  -->
<svg xmlns="http://www.w3.org/2000/svg" xmlns:xlink="http://www.w3.org/1999/xlink" version="1.1" id="Capa_1" x="0px" y="0px" viewBox="0 0 94 94" style="enable-background:new 0 0 94 94;" xml:space="preserve" width="512px" height="512px">
<g>
	<g>
		<path d="M73.602,69.24c-12.326-4.493-16.266-8.282-16.266-16.395c0-4.871,3.764-3.28,5.416-12.2    c0.686-3.7,4.01-0.06,4.646-8.507c0-3.367-1.814-4.203-1.814-4.203s0.922-4.982,1.283-8.816C67.314,14.342,64.107,2,47,2    S26.684,14.342,27.133,19.119c0.361,3.834,1.283,8.816,1.283,8.816s-1.814,0.836-1.814,4.203c0.635,8.447,3.959,4.807,4.645,8.507    c1.654,8.919,5.416,7.329,5.416,12.2c0,8.113-3.938,11.902-16.264,16.395C8.033,73.746,0,78.339,0,81.473C0,84.604,0,92,0,92h47    h47c0,0,0-7.396,0-10.527C94,78.339,85.967,73.746,73.602,69.24z" fill="#7d5e7d"/>
	</g>
</g>
<g>
</g>
<g>
</g>
<g>
</g>
<g>
</g>
<g>
</g>
<g>
</g>
<g>
</g>
<g>
</g>
<g>
</g>
<g>
</g>
<g>
</g>
<g>
</g>
<g>
</g>
<g>
</g>
<g>
</g>
</svg>
